PathFileType	4	(X/Y/Z)	D:\Documents\Paper\paper_03\paper_step_1_data\data_step_3\marker\BD\subject_01.tsv
DataRate	CameraRate	NumFrames	NumMarkers	Units	OrigDataRate	OrigDataStartFrame	OrigNumFrames
200	200	6	43	mm	200	201	200
Frame#	Time	Top.Head			L.Acromium			R.Acromium			Sternum			L.ASIS			R.ASIS			V.Sacral			R.Knee.Lat			R.Knee.Med			L.Knee.Lat			L.Knee.Med			L.Ankle.Lat			L.Toe.Tip			R.Heel			R.Ankle.Med			R.Ankle.Lat			L.Toe.Med			L.Toe.Lat			L.Heel			L.Ankle.Med			L.Shank1			L.Shank2			R.Toe.Tip			R.Toe.Med			R.Toe.Lat			L.Thigh2			L.Thigh1			L.Thigh3			R.Thigh3			R.Thigh1			R.Thigh2			R.Shank1			R.Shank2			R.Shank3			L.Shank3			L.Shank4			R.Shank4			L.Thigh4			R.Thigh4			R.Heel.Lat			R.Heel.Med			L.Heel.Lat			L.Heel.Med		
		X1	Y1	Z1	X2	Y2	Z2	X3	Y3	Z3	X4	Y4	Z4	X5	Y5	Z5	X6	Y6	Z6	X7	Y7	Z7	X8	Y8	Z8	X9	Y9	Z9	X10	Y10	Z10	X11	Y11	Z11	X12	Y12	Z12	X13	Y13	Z13	X14	Y14	Z14	X15	Y15	Z15	X16	Y16	Z16	X17	Y17	Z17	X18	Y18	Z18	X19	Y19	Z19	X20	Y20	Z20	X21	Y21	Z21	X22	Y22	Z22	X23	Y23	Z23	X24	Y24	Z24	X25	Y25	Z25	X26	Y26	Z26	X27	Y27	Z27	X28	Y28	Z28	X29	Y29	Z29	X30	Y30	Z30	X31	Y31	Z31	X32	Y32	Z32	X33	Y33	Z33	X34	Y34	Z34	X35	Y35	Z35	X36	Y36	Z36	X37	Y37	Z37	X38	Y38	Z38	X39	Y39	Z39	X40	Y40	Z40	X41	Y41	Z41	X42	Y42	Z42	X43	Y43	Z43
1598	7.985	921.999	1692.931	-991.616	930.696	1409.764	-817.111	1089.919	1400.246	-1089.482	898.053	1359.259	-1019.063	802.929	911.681	-933.151	926.145	931.549	-1134.833	1007.275	964.454	-953.776	1002.868	475.049	-1166.003	947.934	454.718	-1065.889	848.371	476.172	-847.868	885.262	456.708	-950.552	906.937	102.821	-808.727	726.894	56.339	-869.072	1104.896	34.417	-1104.225	990.153	103.266	-1115.276	1060.752	105.225	-1173.936	786.871	45.229	-907.883	793.443	46.342	-802.81	1001.325	31.529	-814.581	927.041	104.591	-894.657	831.215	388.228	-836.7	828.794	307.524	-819.685	876.026	54.445	-1277.224	899.992	44.49	-1205.439	986.466	37.428	-1275.02	790.318	612.803	-879.461	791.366	695.678	-875.774	835.6	692.146	-830.255	1030.573	656.709	-1156.249	976.003	647.974	-1189.535	977.121	564.984	-1182.435	987.339	390.195	-1205.143	1002.856	304	-1210.691	1046.524	399.452	-1181.945	882.778	395.944	-801.735	884.792	309.883	-785.277	1061.944	317.389	-1187.583	837.106	603.482	-833.975	1030.461	568.362	-1149.593	1098.254	32.205	-1172.689	1024.781	25.334	-1101.013	935.325	22.34	-780.098	956.467	27.328	-883.627
1599	7.99	921.99	1692.927	-991.594	930.716	1409.756	-817.071	1089.936	1400.223	-1089.458	898.025	1359.27	-1019.062	802.911	911.685	-933.139	926.141	931.57	-1134.827	1007.259	964.446	-953.748	1002.876	475.052	-1166.01	947.917	454.77	-1065.889	848.335	476.211	-847.898	885.335	456.728	-950.526	906.899	102.832	-808.732	726.921	56.3	-869.044	1104.895	34.417	-1104.183	990.151	103.318	-1115.34	1060.704	104.989	-1173.94	786.881	45.274	-907.911	793.447	46.365	-802.821	1001.372	31.562	-814.606	927.03	104.549	-894.599	831.176	388.138	-836.788	828.764	307.549	-819.668	876.012	54.449	-1277.226	899.997	44.531	-1205.435	986.468	37.449	-1275.045	790.316	612.801	-879.455	791.367	695.664	-875.78	835.579	692.155	-830.266	1030.566	656.765	-1156.3	975.984	647.976	-1189.545	977.109	565.004	-1182.423	987.342	390.226	-1205.151	1002.846	303.996	-1210.687	1046.533	399.454	-1181.983	882.791	395.964	-801.738	884.753	309.884	-785.247	1061.953	317.43	-1187.597	837.112	603.563	-833.935	1030.436	568.291	-1149.595	1098.247	32.232	-1172.709	1024.781	25.322	-1101.013	935.322	22.334	-780.101	956.457	27.341	-883.65
1600	7.995	922.012	1692.954	-991.592	930.714	1409.775	-817.1	1089.954	1400.211	-1089.451	898.032	1359.241	-1019.038	802.901	911.661	-933.152	926.126	931.581	-1134.856	1007.242	964.436	-953.776	1002.874	475.078	-1166.025	947.909	454.731	-1065.909	848.359	476.203	-847.874	885.364	456.743	-950.503	906.91	102.849	-808.729	726.913	56.332	-869.048	1104.895	34.415	-1104.21	990.171	103.234	-1115.297	1060.729	105.141	-1173.953	786.869	45.218	-907.875	793.454	46.365	-802.813	1001.353	31.509	-814.607	927.085	104.625	-894.616	831.101	388.221	-836.898	828.78	307.528	-819.695	876.031	54.421	-1277.211	899.986	44.522	-1205.428	986.495	37.455	-1275.058	790.301	612.776	-879.465	791.355	695.642	-875.774	835.565	692.168	-830.248	1030.555	656.74	-1156.292	975.957	647.98	-1189.536	977.113	565.004	-1182.461	987.324	390.235	-1205.132	1002.837	304.015	-1210.695	1046.545	399.458	-1181.98	882.774	395.965	-801.752	884.792	309.896	-785.251	1061.936	317.427	-1187.606	837.091	603.573	-833.918	1030.448	568.37	-1149.634	1098.249	32.22	-1172.705	1024.773	25.341	-1100.995	935.311	22.375	-780.084	956.504	27.299	-883.61
1601	8	922.02	1692.955	-991.541	930.749	1409.765	-817.083	1089.958	1400.229	-1089.441	898.037	1359.275	-1019.068	802.901	911.681	-933.158	926.107	931.559	-1134.858	1007.27	964.475	-953.786	1002.874	475.035	-1166.044	947.899	454.752	-1065.908	848.341	476.189	-847.892	885.289	456.714	-950.536	906.928	102.837	-808.727	726.899	56.33	-869.054	1104.913	34.41	-1104.212	990.152	103.223	-1115.265	1060.544	104.845	-1174.022	786.873	45.219	-907.885	793.451	46.366	-802.818	1001.336	31.534	-814.592	927.001	104.587	-894.638	830.546	388.177	-837.695	828.778	307.517	-819.684	876.05	54.39	-1277.214	899.983	44.525	-1205.411	986.494	37.458	-1275.046	790.283	612.812	-879.483	791.351	695.653	-875.782	835.569	692.146	-830.273	1030.547	656.715	-1156.301	975.989	647.983	-1189.536	977.1	565.008	-1182.45	987.342	390.224	-1205.149	1002.833	303.991	-1210.697	1046.539	399.462	-1181.986	882.733	395.956	-801.754	884.765	309.902	-785.275	1061.931	317.412	-1187.636	837.056	603.605	-833.908	1030.481	568.325	-1149.597	1098.255	32.246	-1172.696	1024.763	25.33	-1101.007	935.343	22.336	-780.104	956.486	27.318	-883.631
1602	8.005	922.041	1692.962	-991.55	930.73	1409.765	-817.093	1089.947	1400.19	-1089.404	898.043	1359.238	-1019.014	802.891	911.682	-933.14	926.092	931.553	-1134.863	1007.239	964.52	-953.783	1002.816	475.069	-1166.052	947.919	454.759	-1065.904	848.343	476.21	-847.902	885.301	456.696	-950.54	906.899	102.874	-808.715	726.896	56.324	-869.063	1104.9	34.421	-1104.192	990.134	103.303	-1115.303	1060.538	104.929	-1174.043	786.873	45.243	-907.903	793.461	46.338	-802.819	1001.362	31.523	-814.603	927.02	104.576	-894.62	830.517	388.174	-837.689	828.768	307.536	-819.692	876.028	54.426	-1277.214	899.98	44.495	-1205.399	986.491	37.465	-1275.051	790.273	612.815	-879.483	791.323	695.668	-875.779	835.537	692.132	-830.271	1030.539	656.754	-1156.299	975.955	647.994	-1189.553	977.098	565.028	-1182.448	987.336	390.226	-1205.148	1002.824	304.005	-1210.693	1046.545	399.458	-1181.991	882.769	395.951	-801.762	884.783	309.875	-785.252	1061.924	317.45	-1187.66	836.361	604.585	-833.471	1030.435	568.382	-1149.661	1098.276	32.23	-1172.709	1024.765	25.32	-1101.014	935.326	22.297	-780.108	956.475	27.318	-883.631
1603	8.01	922.053	1692.953	-991.506	930.749	1409.743	-817.067	1089.953	1400.176	-1089.407	898.027	1359.252	-1019.013	802.871	911.673	-933.173	926.08	931.55	-1134.87	1007.215	964.495	-953.781	1002.85	475.091	-1166.072	947.931	454.76	-1065.927	848.328	476.22	-847.896	885.303	456.713	-950.551	907.154	103.236	-808.473	726.893	56.307	-869.055	1104.893	34.425	-1104.203	990.129	103.307	-1115.31	1060.731	105.024	-1173.929	786.87	45.245	-907.904	793.429	46.372	-802.828	1001.353	31.529	-814.591	927.055	104.577	-894.648	830.548	388.142	-837.654	828.766	307.522	-819.693	876.086	54.365	-1277.188	899.985	44.528	-1205.432	986.434	37.442	-1275.035	790.242	612.813	-879.481	791.312	695.661	-875.774	835.551	692.144	-830.293	1030.529	656.76	-1156.315	975.952	647.972	-1189.563	977.086	565.021	-1182.476	987.31	390.219	-1205.158	1002.835	304.012	-1210.699	1046.521	399.477	-1182.004	882.738	395.966	-801.773	884.739	309.87	-785.285	1061.923	317.409	-1187.627	836.353	604.573	-833.508	1030.423	568.357	-1149.63	1098.285	32.24	-1172.686	1024.761	25.342	-1101.037	935.311	22.277	-780.091	956.48	27.352	-883.642
